<svg width="120" height="120" viewBox="0 0 120 120" fill="none" xmlns="http://www.w3.org/2000/svg">
<path d="M78.7499 30C78.7499 40.3553 70.3553 48.75 59.9999 48.75C49.6446 48.75 41.2499 40.3553 41.2499 30C41.2499 19.6447 49.6446 11.25 59.9999 11.25C70.3553 11.25 78.7499 19.6447 78.7499 30Z" fill="#E3CD00"/>
<path d="M22.5056 100.591C22.8571 80.1845 39.5093 63.75 59.9999 63.75C80.4911 63.75 97.1435 80.1853 97.4943 100.593C86.0803 105.83 73.3819 108.75 60.0015 108.75C46.6199 108.75 33.9204 105.83 22.5056 100.591Z" fill="#E3CD00"/>
<path d="M78.7499 30C78.7499 40.3553 70.3553 48.75 59.9999 48.75C49.6446 48.75 41.2499 40.3553 41.2499 30C41.2499 19.6447 49.6446 11.25 59.9999 11.25C70.3553 11.25 78.7499 19.6447 78.7499 30Z" stroke="#0F172A" stroke-width="2.5" stroke-linecap="round" stroke-linejoin="round"/>
<path d="M22.5056 100.591C22.8571 80.1845 39.5093 63.75 59.9999 63.75C80.4911 63.75 97.1435 80.1853 97.4943 100.593C86.0803 105.83 73.3819 108.75 60.0015 108.75C46.6199 108.75 33.9204 105.83 22.5056 100.591Z" stroke="#0F172A" stroke-width="2.5" stroke-linecap="round" stroke-linejoin="round"/>
<line x1="22.9966" y1="94.5" x2="97.0033" y2="94.5" stroke="black" stroke-width="2"/>
<line x1="29.9998" y1="79.125" x2="89.9998" y2="79.125" stroke="black" stroke-width="2"/>
<line x1="34.3001" y1="74" x2="85.8001" y2="74.0005" stroke="black" stroke-width="2"/>
<line x1="41" y1="69" x2="79" y2="69" stroke="black" stroke-width="2"/>
<line x1="22.9966" y1="99.5" x2="97.0033" y2="99.5" stroke="black" stroke-width="2"/>
<line x1="32.9966" y1="104.5" x2="86.9966" y2="104.5" stroke="black" stroke-width="2"/>
<line x1="27" y1="84" x2="93" y2="84" stroke="black" stroke-width="2"/>
<line x1="23.9966" y1="89.5" x2="95.9966" y2="89.5" stroke="black" stroke-width="2"/>
</svg>
